<svg width="283" height="197" viewBox="0 0 283 197" fill="none" xmlns="http://www.w3.org/2000/svg">
<path d="M1.78104 48.4342C0.812708 48.4342 0 47.6388 0 46.6531V2.76688C0 1.79855 0.795417 0.98584 1.78104 0.98584H10.669C11.6373 0.98584 12.45 1.78126 12.45 2.76688V46.6531C12.45 47.6215 11.6546 48.4342 10.669 48.4342H1.78104Z" fill="black"/>
<path d="M22.2026 61.0398C21.2342 61.0398 20.4215 60.2444 20.4215 59.2588V2.76688C20.4215 1.79855 21.2169 0.98584 22.2026 0.98584H32.7678C33.9263 0.98584 34.6353 1.52188 34.9811 2.57667L47.1371 38.9756C47.2236 39.4252 47.9326 39.4252 47.9326 38.8027V19.4879C47.9326 18.5196 48.728 17.7069 49.7136 17.7069H58.6015C59.5698 17.7069 60.3825 18.5023 60.3825 19.4879V67.1265C60.3825 68.0948 59.5871 68.9075 58.6015 68.9075H48.1228C46.8778 68.9075 46.0823 68.3715 45.7192 67.4031L33.6496 27.8052C33.5632 27.3556 32.8542 27.3556 32.8542 27.9781V59.2588C32.8542 60.2271 32.0588 61.0398 31.0732 61.0398H22.1853H22.2026Z" fill="black"/>
<path d="M78.5907 63.1494C77.6223 63.1494 76.8096 62.354 76.8096 61.3683V14.3177C76.8096 13.6952 76.5502 13.4358 75.9277 13.4358H50.4225C49.4542 13.4358 48.6415 12.6404 48.6415 11.6548V2.76688C48.6415 1.79855 49.4369 0.98584 50.4225 0.98584H101.225C102.194 0.98584 103.006 1.78126 103.006 2.76688V11.6548C103.006 12.6231 102.211 13.4358 101.225 13.4358H90.1242C89.5017 13.4358 89.2423 13.6952 89.2423 14.3177V61.3856C89.2423 62.354 88.4469 63.1667 87.4613 63.1667H78.5734L78.5907 63.1494Z" fill="black"/>
<path d="M123.428 64.1175C118.811 64.1175 114.817 63.0454 111.531 60.9185C108.246 58.7917 105.756 55.9385 104.165 52.3073C102.47 48.6588 101.675 41.915 101.675 32.0588C101.675 22.2025 102.47 15.4588 104.165 11.8102C107.364 4.61688 114.194 0 123.428 0C132.662 0 139.492 4.61688 142.691 11.8102C144.385 15.4588 145.181 22.2025 145.181 32.0588C145.181 41.915 144.385 48.6588 142.691 52.3073C141.1 55.9558 138.61 58.7917 135.325 60.9185C132.039 63.0454 128.045 64.1175 123.428 64.1175ZM123.428 51.5983C127.336 51.5983 129.912 50.1804 131.244 47.3446C132.039 45.4771 132.489 40.4106 132.489 32.076C132.489 23.7415 132.039 18.675 131.244 16.8075C129.912 13.9717 127.336 12.5538 123.428 12.5538C119.52 12.5538 116.944 13.9717 115.612 16.8075C114.817 18.675 114.367 23.7415 114.367 32.076C114.367 40.4106 114.817 45.4771 115.612 47.3446C116.944 50.1804 119.52 51.5983 123.428 51.5983Z" fill="black"/>
<path d="M173.141 88.0148C172.173 88.0148 171.36 87.2194 171.36 86.2338V14.3177C171.36 13.6952 171.101 13.4358 170.479 13.4358H157.596C156.628 13.4358 155.815 12.6404 155.815 11.6548V2.76688C155.815 1.79855 156.611 0.98584 157.596 0.98584H208.036C209.004 0.98584 209.817 1.78126 209.817 2.76688V11.6548C209.817 12.6231 209.022 13.4358 208.036 13.4358H184.675C184.052 13.4358 183.793 13.6952 183.793 14.3177V86.251C183.793 87.2194 182.998 88.0321 182.012 88.0321H173.124L173.141 88.0148Z" fill="black"/>
<path d="M200.238 63.1494C199.269 63.1494 198.457 62.354 198.457 61.3683V20.3179C198.457 19.3496 199.252 18.5369 200.238 18.5369H209.126C210.094 18.5369 210.907 19.3323 210.907 20.3179V28.8946C210.907 29.5171 211.166 29.7765 211.788 29.7765H225.103C225.725 29.7765 225.985 29.5171 225.985 28.8946V2.76688C225.985 1.79855 226.78 0.98584 227.766 0.98584H236.654C237.622 0.98584 238.435 1.78126 238.435 2.76688V68.9248C238.435 69.8931 237.639 70.7058 236.654 70.7058H227.766C226.798 70.7058 225.985 69.9104 225.985 68.9248V43.1083C225.985 42.4858 225.725 42.2265 225.103 42.2265H211.788C211.166 42.2265 210.907 42.4858 210.907 43.1083V61.3683C210.907 62.3367 209.748 63.1494 208.693 63.1494H200.255H200.238Z" fill="black"/>
<path d="M248.187 63.1494C247.219 63.1494 246.406 62.354 246.406 61.3683V2.76688C246.406 1.79855 247.202 0.98584 248.187 0.98584H280.419C281.387 0.98584 282.2 1.78126 282.2 2.76688V11.6548C282.2 12.6231 281.405 13.4358 280.419 13.4358H259.738C259.116 13.4358 258.856 13.6952 258.856 14.3177V24.9694C258.856 25.5919 259.116 25.8513 259.738 25.8513H274.609C275.577 25.8513 276.39 26.6467 276.39 27.6323V36.5202C276.39 37.4885 275.595 38.3013 274.609 38.3013H259.738C259.116 38.3013 258.856 38.5606 258.856 39.1831V49.8348C258.856 50.4573 259.116 50.7167 259.738 50.7167H267.502C268.47 50.7167 269.283 51.5121 269.283 52.4977V61.3856C269.283 62.354 268.488 63.1667 267.502 63.1667H248.205L248.187 63.1494Z" fill="black"/>
<path d="M62.1636 137.745C61.1953 137.745 60.3826 136.95 60.3826 135.964V77.3628C60.3826 76.3945 61.178 75.5818 62.1636 75.5818H79.559C88.7928 75.5818 95.623 80.1987 98.8219 87.392C100.517 91.0405 101.312 97.5076 101.312 106.655C101.312 115.802 100.517 122.287 98.8219 125.918C95.623 133.111 88.7928 137.728 79.559 137.728H62.1636V137.745ZM79.559 125.226C83.4669 125.226 86.0434 123.808 87.3749 120.972C88.1703 119.105 88.6199 114.402 88.6199 106.672C88.6199 98.9428 88.1703 94.2395 87.3749 92.372C86.0434 89.5362 83.4669 88.1182 79.559 88.1182H73.6972C73.0747 88.1182 72.8153 88.3776 72.8153 89.0001V124.344C72.8153 124.967 73.0747 125.226 73.6972 125.226H79.559Z" fill="black"/>
<path d="M108.868 137.745C107.9 137.745 107.087 136.95 107.087 135.964V77.3628C107.087 76.3945 107.883 75.5818 108.868 75.5818H141.1C142.068 75.5818 142.881 76.3772 142.881 77.3628V86.2507C142.881 87.2191 142.086 88.0318 141.1 88.0318H120.419C119.797 88.0318 119.537 88.2912 119.537 88.9137V99.5653C119.537 100.188 119.797 100.447 120.419 100.447H140.391C141.359 100.447 142.172 101.243 142.172 102.228V111.116C142.172 112.084 141.377 112.897 140.391 112.897H120.419C119.797 112.897 119.537 113.157 119.537 113.779V124.431C119.537 125.053 119.797 125.313 120.419 125.313H141.463C142.432 125.313 143.244 126.108 143.244 127.094V135.982C143.244 136.95 142.449 137.763 141.463 137.763H108.868V137.745Z" fill="black"/>
<path d="M150.334 137.745C149.365 137.745 148.553 136.95 148.553 135.964V77.3628C148.553 76.3945 149.348 75.5818 150.334 75.5818H165.741C166.709 75.5818 167.522 76.3772 167.522 77.3628V86.2507C167.522 87.2191 166.726 88.0318 165.741 88.0318H161.885C161.262 88.0318 161.003 88.2912 161.003 88.9137V99.5653C161.003 100.188 161.262 100.447 161.885 100.447H181.856C182.825 100.447 183.638 101.243 183.638 102.228V111.116C183.638 112.084 182.842 112.897 181.856 112.897H161.885C161.262 112.897 161.003 113.157 161.003 113.779V124.431C161.003 125.053 161.262 125.313 161.885 125.313H182.929C183.897 125.313 184.71 126.108 184.71 127.094V135.982C184.71 136.95 183.914 137.763 182.929 137.763H150.334V137.745Z" fill="black"/>
<path d="M191.799 137.745C190.831 137.745 190.018 136.95 190.018 135.964V77.3628C190.018 76.3945 190.814 75.5818 191.799 75.5818H211.339C216.924 75.5818 221.368 77.2764 224.844 80.7347C228.302 84.193 229.997 88.637 229.997 94.2395C229.997 99.842 228.302 104.269 224.844 107.744C221.385 111.203 216.941 112.897 211.339 112.897H203.35C202.728 112.897 202.468 113.157 202.468 113.779V135.982C202.468 136.95 201.673 137.763 200.687 137.763H191.799V137.745ZM210.889 100.447C214.538 100.447 217.097 97.8707 217.097 94.2395C217.097 90.6082 214.52 88.0318 210.889 88.0318H203.35C202.728 88.0318 202.468 88.2912 202.468 88.9137V99.5653C202.468 100.188 202.728 100.447 203.35 100.447H210.889Z" fill="black"/>
<path d="M207.431 137.78C206.912 137.555 206.497 137.227 206.22 136.794C205.926 136.379 205.788 135.878 205.788 135.325V135.152C205.788 135.152 205.788 135.048 205.84 135.013C205.875 134.979 205.926 134.961 205.978 134.961H207.915C207.915 134.961 208.019 134.961 208.053 135.013C208.088 135.048 208.105 135.1 208.105 135.152V135.221C208.105 135.446 208.226 135.653 208.468 135.843C208.71 136.016 209.039 136.103 209.454 136.103C209.765 136.103 209.973 136.034 210.111 135.912C210.249 135.791 210.318 135.636 210.318 135.48C210.318 135.29 210.232 135.169 210.076 135.065C209.903 134.979 209.61 134.858 209.16 134.737L208.797 134.633C207.967 134.391 207.292 134.045 206.722 133.63C206.169 133.215 205.892 132.61 205.892 131.832C205.892 131.313 206.03 130.846 206.307 130.448C206.583 130.051 206.981 129.739 207.465 129.515C207.967 129.307 208.52 129.186 209.125 129.186C209.765 129.186 210.353 129.307 210.889 129.549C211.408 129.791 211.823 130.137 212.134 130.569C212.445 131.002 212.584 131.52 212.584 132.074V132.177C212.584 132.177 212.584 132.281 212.532 132.316C212.48 132.35 212.445 132.368 212.394 132.368H210.457C210.457 132.368 210.353 132.368 210.318 132.316C210.284 132.281 210.267 132.229 210.267 132.177C210.267 131.918 210.163 131.693 209.938 131.486C209.713 131.278 209.419 131.175 209.022 131.175C208.762 131.175 208.555 131.226 208.399 131.33C208.243 131.434 208.174 131.59 208.174 131.78C208.174 131.935 208.226 132.056 208.347 132.16C208.451 132.264 208.624 132.368 208.866 132.454C209.091 132.558 209.454 132.679 209.938 132.817C210.007 132.835 210.301 132.938 210.82 133.077C211.339 133.232 211.771 133.509 212.117 133.907C212.463 134.304 212.636 134.789 212.636 135.376C212.636 135.964 212.497 136.414 212.221 136.812C211.944 137.209 211.546 137.521 211.045 137.745C210.543 137.953 209.955 138.074 209.281 138.074C208.607 138.074 207.967 137.953 207.448 137.728L207.431 137.78Z" fill="black"/>
<path d="M218.93 129.307H220.867C220.867 129.307 220.97 129.307 221.005 129.359C221.039 129.394 221.057 129.445 221.057 129.497V137.849C221.057 137.849 221.057 137.953 221.005 137.988C220.953 138.022 220.918 138.039 220.867 138.039H218.895C218.895 138.039 218.792 138.039 218.757 137.988C218.722 137.953 218.705 137.901 218.705 137.849V133.336C218.705 133.336 218.705 133.284 218.688 133.284C218.688 133.284 218.653 133.284 218.636 133.319L217.789 134.702C217.789 134.702 217.668 134.823 217.564 134.823H216.613C216.509 134.823 216.44 134.789 216.388 134.702L215.541 133.319C215.541 133.319 215.506 133.284 215.489 133.284C215.489 133.284 215.472 133.302 215.472 133.336V137.849C215.472 137.849 215.472 137.953 215.42 137.988C215.368 138.022 215.333 138.039 215.281 138.039H213.31C213.31 138.039 213.206 138.039 213.172 137.988C213.137 137.953 213.12 137.901 213.12 137.849V129.497C213.12 129.497 213.12 129.394 213.172 129.359C213.206 129.324 213.258 129.307 213.31 129.307H215.247C215.351 129.307 215.42 129.342 215.472 129.428L217.045 131.953C217.045 131.953 217.097 132.005 217.114 131.953L218.688 129.428C218.688 129.428 218.809 129.307 218.913 129.307H218.93Z" fill="black"/>
<path d="M57.4774 183.637H56.1632V186.214H54.8318V179.366H57.4774C58.8953 179.366 59.7426 180.335 59.7426 181.493C59.7426 182.652 58.8953 183.62 57.4774 183.62V183.637ZM57.4082 180.56H56.1632V182.427H57.4082C58.0135 182.427 58.3939 182.047 58.3939 181.493C58.3939 180.94 58.0135 180.56 57.4082 180.56Z" fill="black"/>
<path d="M64.9821 186.214L63.6506 183.482H62.6823V186.214H61.3508V179.366H64.031C65.4317 179.366 66.2444 180.317 66.2444 181.459C66.2444 182.427 65.6565 183.015 64.9994 183.257L66.521 186.214H64.9821ZM63.9446 180.56H62.6823V182.358H63.9446C64.5325 182.358 64.9129 181.977 64.9129 181.459C64.9129 180.94 64.5325 180.56 63.9446 180.56Z" fill="black"/>
<path d="M68.1119 186.214V179.366H72.6251V180.56H69.4607V182.168H72.1582V183.361H69.4607V185.021H72.6251V186.214H68.1119Z" fill="black"/>
<path d="M76.2909 186.266C75.2534 186.266 74.458 186.041 73.8009 185.366L74.6655 184.502C75.0978 184.934 75.6857 185.073 76.3255 185.073C77.1209 185.073 77.5359 184.779 77.5359 184.225C77.5359 183.983 77.4667 183.776 77.3284 183.655C77.1901 183.534 77.0344 183.464 76.7232 183.413L75.8932 183.291C75.3053 183.205 74.873 183.015 74.5617 182.721C74.2332 182.392 74.0776 181.96 74.0776 181.372C74.0776 180.144 74.9767 179.297 76.4638 179.297C77.3976 179.297 78.0892 179.522 78.6772 180.093L77.8299 180.923C77.3976 180.508 76.8788 180.456 76.4292 180.456C75.7203 180.456 75.3744 180.853 75.3744 181.32C75.3744 181.493 75.4263 181.683 75.5819 181.804C75.7203 181.925 75.9451 182.029 76.2217 182.081L77.0344 182.202C77.6569 182.289 78.0547 182.461 78.3486 182.738C78.7117 183.084 78.8847 183.585 78.8847 184.191C78.8847 185.522 77.778 186.266 76.3428 186.266H76.2909Z" fill="black"/>
<path d="M80.5791 186.214V179.366H85.0922V180.56H81.9279V182.168H84.6254V183.361H81.9279V185.021H85.0922V186.214H80.5791Z" fill="black"/>
<path d="M90.9195 186.214L88.2047 182.012V186.214H86.8733V179.366H88.0664L90.7812 183.551V179.366H92.1127V186.214H90.9195Z" fill="black"/>
<path d="M96.7988 180.56V186.214H95.4673V180.56H93.6863V179.366H98.5971V180.56H96.8161H96.7988Z" fill="black"/>
<path d="M100.153 186.214V179.366H104.667V180.56H101.502V182.168H104.2V183.361H101.502V185.021H104.667V186.214H100.153Z" fill="black"/>
<path d="M110.736 185.557C110.286 186.006 109.646 186.214 108.937 186.214H106.465V179.366H108.937C109.646 179.366 110.286 179.574 110.736 180.024C111.497 180.784 111.427 181.735 111.427 182.756C111.427 183.776 111.497 184.779 110.736 185.557ZM109.802 180.992C109.577 180.715 109.266 180.577 108.799 180.577H107.796V185.038H108.799C109.266 185.038 109.56 184.9 109.802 184.623C110.044 184.312 110.096 183.828 110.096 182.79C110.096 181.753 110.061 181.32 109.802 181.009V180.992Z" fill="black"/>
<path d="M118.846 186.214H115.975V179.366H118.724C120.056 179.366 120.834 180.11 120.834 181.286C120.834 182.047 120.333 182.531 119.987 182.704C120.402 182.894 120.921 183.326 120.921 184.243C120.921 185.522 120.039 186.214 118.828 186.214H118.846ZM118.638 180.56H117.324V182.133H118.638C119.209 182.133 119.52 181.822 119.52 181.338C119.52 180.854 119.209 180.542 118.638 180.542V180.56ZM118.724 183.344H117.324V185.021H118.724C119.33 185.021 119.624 184.64 119.624 184.174C119.624 183.707 119.33 183.344 118.724 183.344Z" fill="black"/>
<path d="M125.416 183.413V186.214H124.085V183.413L122.027 179.384H123.48L124.759 182.15L126.022 179.384H127.474L125.416 183.413Z" fill="black"/>
<path d="M158.755 165.343C159.101 165.274 159.446 165.205 159.792 165.153L161.418 174.438C161.072 174.473 160.726 174.525 160.38 174.629L158.755 165.343ZM158.34 175.58C158.686 175.338 159.049 175.13 159.429 174.957L154.743 166.796C154.363 166.986 154.017 167.211 153.654 167.435L158.323 175.58H158.34ZM155.677 180.733C155.677 180.387 155.711 180.041 155.763 179.712H146.443C146.426 180.041 146.409 180.369 146.409 180.698C146.409 181.009 146.409 181.321 146.443 181.614H155.729C155.694 181.321 155.66 181.044 155.66 180.733M168.3 180.733C168.3 184.226 165.481 187.044 161.988 187.044C158.859 187.044 156.282 184.779 155.763 181.805L147.014 185.021C147.204 185.713 147.446 186.37 147.723 187.009L156.42 183.828L149.331 189.828C149.78 190.451 150.282 191.056 150.818 191.609L157.458 186.007L153.135 193.598C153.827 194.082 154.553 194.514 155.314 194.877L159.377 187.753L157.959 195.863C158.824 196.105 159.723 196.261 160.657 196.33L161.988 188.756L163.32 196.33C164.288 196.243 165.222 196.088 166.138 195.828L164.911 188.791L168.455 194.981C169.424 194.531 170.34 193.995 171.205 193.373L167.954 187.701L172.934 191.903C173.729 191.125 174.438 190.243 175.061 189.309L170.617 185.557L176.064 187.563C176.565 186.525 176.963 185.401 177.222 184.243L172.433 182.496H177.516C177.585 181.908 177.62 181.321 177.62 180.715C177.62 180.024 177.568 179.332 177.482 178.658H168.006C168.231 179.315 168.369 180.024 168.369 180.75M155.85 179.315C155.971 178.761 156.178 178.225 156.438 177.741L147.671 174.525C147.446 175.044 147.256 175.58 147.1 176.116L155.85 179.315ZM173.729 170.375L166.588 176.392C166.761 176.583 166.934 176.773 167.072 176.98L174.196 170.963C174.041 170.755 173.868 170.565 173.712 170.375M170.185 167.349C169.943 167.193 169.683 167.038 169.424 166.899L164.755 175.044C165.032 175.182 165.274 175.32 165.533 175.493L170.202 167.349H170.185ZM157.717 176.098L150.559 170.046C150.23 170.41 149.919 170.79 149.608 171.17L156.749 177.205C157.026 176.79 157.354 176.427 157.717 176.081M162.628 174.456C162.939 174.49 163.251 174.542 163.562 174.611L165.187 165.326C164.876 165.257 164.565 165.205 164.254 165.153L162.628 174.438V174.456Z" fill="black"/>
<path d="M184.796 188.773V172.657H190.675C192.646 172.657 194.203 173.142 195.309 174.11C196.416 175.078 196.969 176.427 196.969 178.139C196.969 179.055 196.745 179.885 196.295 180.629C195.845 181.372 195.275 181.978 194.583 182.462L198.526 188.756H193.84L191.021 183.586H188.86V188.756H184.796V188.773ZM190.087 175.787H188.86V180.491H190.053C191.903 180.491 192.837 179.695 192.837 178.122C192.837 176.548 191.92 175.787 190.105 175.787H190.087Z" fill="black"/>
<path d="M202.295 188.773V176.116H197.35V172.657H211.529V176.116H206.584V188.773H202.278H202.295Z" fill="black"/>
<path d="M211.633 188.773L217.235 180.387L212.013 172.675H217.028L219.864 177.638L222.682 172.675H227.558L222.284 180.577L227.852 188.773H222.803L219.552 183.309L216.474 188.773H211.598H211.633Z" fill="black"/>
</svg>
